<svg width="76" height="76" viewBox="0 0 76 76" fill="none" xmlns="http://www.w3.org/2000/svg">
<rect x="1.1068" y="1.1068" width="73.7864" height="73.7864" stroke="white" stroke-width="2.21359"/>
<path d="M22.523 25.7082C22.523 24.0712 22.8772 22.6151 23.5855 21.3401C24.2939 20.0493 25.2777 19.0497 26.537 18.3414C27.812 17.6173 29.2523 17.2553 30.8579 17.2553C32.8256 17.2553 34.5099 17.7747 35.9108 18.8136C37.3118 19.8525 38.2484 21.2692 38.7206 23.0637H34.2816C33.9511 22.3711 33.4788 21.8438 32.8649 21.4817C32.2668 21.1197 31.582 20.9387 30.8107 20.9387C29.5672 20.9387 28.5597 21.3716 27.7884 22.2373C27.0171 23.1031 26.6315 24.26 26.6315 25.7082C26.6315 27.1564 27.0171 28.3134 27.7884 29.1791C28.5597 30.0449 29.5672 30.4778 30.8107 30.4778C31.582 30.4778 32.2668 30.2968 32.8649 29.9347C33.4788 29.5727 33.9511 29.0453 34.2816 28.3527H38.7206C38.2484 30.1472 37.3118 31.5639 35.9108 32.6028C34.5099 33.626 32.8256 34.1376 30.8579 34.1376C29.2523 34.1376 27.812 33.7834 26.537 33.0751C25.2777 32.351 24.2939 31.3514 23.5855 30.0764C22.8772 28.8014 22.523 27.3453 22.523 25.7082ZM47.1906 34.1848C45.9785 34.1848 44.8924 33.988 43.9322 33.5945C42.9719 33.201 42.2006 32.6186 41.6182 31.8473C41.0515 31.0759 40.7525 30.1472 40.721 29.0611H45.0183C45.0813 29.675 45.2938 30.1472 45.6558 30.4778C46.0178 30.7926 46.4901 30.95 47.0725 30.95C47.6707 30.95 48.1429 30.8162 48.4892 30.5486C48.8355 30.2653 49.0087 29.8796 49.0087 29.3916C49.0087 28.9824 48.867 28.6439 48.5836 28.3763C48.316 28.1087 47.9776 27.8884 47.5683 27.7152C47.1748 27.5421 46.6081 27.3453 45.8683 27.1249C44.7979 26.7944 43.9243 26.4638 43.2474 26.1332C42.5705 25.8027 41.9881 25.3147 41.5002 24.6693C41.0122 24.0239 40.7682 23.1818 40.7682 22.1429C40.7682 20.6002 41.327 19.396 42.4446 18.5303C43.5622 17.6488 45.0183 17.208 46.8128 17.208C48.6387 17.208 50.1105 17.6488 51.2282 18.5303C52.3458 19.396 52.9439 20.6081 53.0226 22.1665H48.6545C48.623 21.6313 48.4262 21.2141 48.0642 20.9151C47.7021 20.6002 47.2378 20.4428 46.6711 20.4428C46.1831 20.4428 45.7896 20.5766 45.4905 20.8442C45.1914 21.0961 45.0419 21.466 45.0419 21.954C45.0419 22.4892 45.2938 22.9063 45.7975 23.2054C46.3012 23.5045 47.0882 23.8272 48.1586 24.1735C49.229 24.5355 50.0948 24.8818 50.7559 25.2124C51.4328 25.5429 52.0152 26.0231 52.5032 26.6527C52.9912 27.2823 53.2351 28.093 53.2351 29.0847C53.2351 30.0292 52.9912 30.8871 52.5032 31.6584C52.0309 32.4297 51.3383 33.0436 50.4254 33.5001C49.5124 33.9566 48.4341 34.1848 47.1906 34.1848ZM29.0782 40.4442V57.0195H25.0406V50.1958H18.7599V57.0195H14.7223V40.4442H18.7599V46.9374H25.0406V40.4442H29.0782ZM35.9597 40.4442V50.361C35.9597 51.3527 36.2037 52.1162 36.6917 52.6514C37.1797 53.1866 37.8959 53.4542 38.8403 53.4542C39.7848 53.4542 40.5089 53.1866 41.0126 52.6514C41.5163 52.1162 41.7682 51.3527 41.7682 50.361V40.4442H45.8058V50.3374C45.8058 51.8171 45.491 53.0685 44.8613 54.0917C44.2317 55.1149 43.3816 55.8862 42.3113 56.4056C41.2566 56.9251 40.076 57.1848 38.7695 57.1848C37.463 57.1848 36.2903 56.933 35.2514 56.4292C34.2282 55.9098 33.4175 55.1385 32.8194 54.1153C32.2212 53.0764 31.9221 51.8171 31.9221 50.3374V40.4442H35.9597ZM58.676 48.5193C59.6362 48.724 60.4075 49.2041 60.9899 49.9596C61.5723 50.6995 61.8635 51.5495 61.8635 52.5097C61.8635 53.8949 61.3756 54.9968 60.3996 55.8153C59.4394 56.6181 58.0935 57.0195 56.362 57.0195H48.641V40.4442H56.1023C57.7866 40.4442 59.101 40.8298 60.0454 41.6011C61.0057 42.3724 61.4858 43.4192 61.4858 44.7415C61.4858 45.7174 61.226 46.5281 60.7066 47.1735C60.2029 47.8189 59.526 48.2675 58.676 48.5193ZM52.6786 47.1499H55.3231C55.9842 47.1499 56.488 47.0082 56.8343 46.7249C57.1963 46.4258 57.3773 45.9929 57.3773 45.4262C57.3773 44.8595 57.1963 44.4267 56.8343 44.1276C56.488 43.8285 55.9842 43.6789 55.3231 43.6789H52.6786V47.1499ZM55.6537 53.7611C56.3305 53.7611 56.85 53.6116 57.212 53.3125C57.5898 52.9977 57.7787 52.5491 57.7787 51.9666C57.7787 51.3842 57.582 50.9277 57.1884 50.5972C56.8106 50.2666 56.2833 50.1013 55.6065 50.1013H52.6786V53.7611H55.6537Z" fill="white"/>
</svg>
